<?xml version="1.0" standalone="no"?>
<!DOCTYPE svg PUBLIC "-//W3C//DTD SVG 20010904//EN"
 "http://www.w3.org/TR/2001/REC-SVG-20010904/DTD/svg10.dtd">
<svg version="1.0" xmlns="http://www.w3.org/2000/svg"
 width="300.000000pt" height="300.000000pt" viewBox="0 0 300.000000 300.000000"
 preserveAspectRatio="xMidYMid meet">
<metadata>
Created by potrace 1.14, written by Peter Selinger 2001-2017
</metadata>
<g transform="translate(0.000000,300.000000) scale(0.100000,-0.100000)"
fill="#000000" stroke="none">
<path d="M0 1500 l0 -1500 1500 0 1500 0 0 1500 0 1500 -1500 0 -1500 0 0
-1500z m1531 848 c13 -24 12 -81 -18 -1070 -9 -312 -18 -566 -20 -564 -3 3
-13 366 -33 1173 -8 322 -8 447 0 462 14 28 56 27 71 -1z m-455 -425 c32 -47
100 -247 139 -403 50 -205 106 -591 104 -715 -1 -35 -11 6 -34 140 -60 340
-129 577 -241 820 -35 76 -64 145 -64 151 0 21 31 45 53 42 12 -2 31 -18 43
-35z m916 20 c25 -22 23 -33 -17 -114 -114 -226 -190 -467 -261 -834 -38 -199
-41 -187 -14 67 28 274 69 478 134 665 78 223 107 262 158 216z m-1515 -502
c96 -83 220 -214 280 -296 64 -88 153 -255 192 -363 41 -110 39 -114 -8 -16
-104 220 -312 461 -516 597 -33 22 -66 47 -72 55 -16 20 -17 54 -1 70 24 24
58 12 125 -47z m2153 29 c38 -38 27 -56 -88 -137 -207 -146 -372 -335 -479
-553 -67 -135 -77 -145 -38 -35 91 250 237 462 460 663 94 86 113 94 145 62z
m-492 -32 c24 -24 11 -62 -59 -165 -110 -166 -192 -339 -236 -502 l-23 -86 6
60 c9 95 33 202 70 315 40 120 142 338 173 369 23 23 51 27 69 9z m-1205 -50
c90 -119 216 -467 231 -635 l7 -68 -40 116 c-65 193 -164 389 -251 499 -35 44
-47 85 -30 105 21 25 57 18 83 -17z m394 -700 c-2 -13 -4 -5 -4 17 -1 22 1 32
4 23 2 -10 2 -28 0 -40z m-150 -40 c-3 -8 -6 -5 -6 6 -1 11 2 17 5 13 3 -3 4
-12 1 -19z"/>
</g>
</svg>
